<svg xmlns="http://www.w3.org/2000/svg" viewBox="0 0 500 251"><defs><style>.cls-1{fill:#012169;}.cls-2{fill:#fff;}.cls-3{fill:#c8102e;}</style></defs><g id="Layer_2" data-name="Layer 2"><g id="UK_flag" data-name="UK flag"><rect class="cls-1" width="500" height="250"/><path class="cls-2" d="M500,244.37l-153.16-76h37.73L500,225.64v-8.29L62.16,0H7l.81.32L176.36,84H138.63L.41,15.39,0,15.09V25.32L454.62,251H500Z"/><polygon class="cls-3" points="346.84 168.34 500 244.37 500 225.64 384.57 168.34 346.84 168.34"/><path class="cls-3" d="M138.63,84h37.73L7.77.32,7,0H0V15.09l.41.3Z"/><path class="cls-2" d="M0,244.37l153.16-76H115.43L0,225.64v-8.29L437.84,0H493l-.81.32L323.64,84h37.73L499.59,15.39l.41-.3V25.32L45.38,251H0Z"/><polygon class="cls-3" points="153.16 168.34 0 244.37 0 225.64 115.43 168.34 153.16 168.34"/><path class="cls-3" d="M361.37,84H323.64L492.23.32,493,0h7V15.09l-.41.3Z"/><polygon class="cls-2" points="500 166.66 500 83.33 176.36 83.33 138.63 83.33 0 83.33 0 166.66 307.84 166.66 345.57 166.66 500 166.66"/><rect class="cls-2" x="208.84" y="1" width="83.33" height="249"/><rect class="cls-3" x="225" y="-125" width="50" height="500" transform="translate(375 -125) rotate(90)"/><rect class="cls-3" x="225.5" y="1" width="50" height="248"/></g></g></svg>