<svg xmlns="http://www.w3.org/2000/svg" viewBox="0 0 120 600"><defs><style>.cls-1{fill:none;}.cls-2{fill:#a67c52;}.cls-3{fill:#8c6239;}.cls-3,.cls-4{fill-rule:evenodd;}.cls-4{fill:#754c24;}.cls-5{fill:#c69c6d;}</style></defs><g id="Layer_2" data-name="Layer 2"><g id="Ladder_3" data-name="Ladder 3"><rect id="Background_for_padding_" data-name="Background (for padding)" class="cls-1" width="120" height="598.64"/><rect class="cls-2" x="10.6" y="6.85" width="13.18" height="590.38"/><polygon class="cls-3" points="29.19 591.79 23.74 597.28 23.68 6.87 29.2 1.36 29.19 591.79"/><polygon class="cls-4" points="23.75 6.85 10.57 6.85 17.19 1.37 29.19 1.37 23.75 6.85"/><rect class="cls-5" x="26.44" y="29.2" width="72.12" height="9.91" rx="4.89"/><rect class="cls-5" x="26.44" y="60.12" width="72.12" height="9.91" rx="4.89"/><rect class="cls-5" x="26.44" y="91.04" width="72.12" height="9.91" rx="4.89"/><rect class="cls-5" x="26.44" y="121.96" width="72.12" height="9.91" rx="4.89"/><rect class="cls-5" x="26.44" y="152.88" width="72.12" height="9.91" rx="4.89"/><rect class="cls-5" x="26.44" y="183.81" width="72.12" height="9.91" rx="4.89"/><rect class="cls-5" x="26.44" y="214.73" width="72.12" height="9.91" rx="4.89"/><rect class="cls-5" x="26.44" y="245.65" width="72.12" height="9.91" rx="4.89"/><rect class="cls-5" x="26.44" y="276.57" width="72.12" height="9.91" rx="4.89"/><rect class="cls-5" x="26.44" y="307.49" width="72.12" height="9.91" rx="4.89"/><rect class="cls-5" x="26.44" y="338.41" width="72.12" height="9.91" rx="4.89"/><rect class="cls-5" x="26.44" y="369.34" width="72.12" height="9.91" rx="4.89"/><rect class="cls-5" x="26.44" y="400.26" width="72.12" height="9.91" rx="4.89"/><rect class="cls-5" x="26.44" y="431.18" width="72.12" height="9.91" rx="4.89"/><rect class="cls-5" x="26.44" y="462.1" width="72.12" height="9.91" rx="4.89"/><rect class="cls-5" x="26.44" y="493.02" width="72.12" height="9.91" rx="4.89"/><rect class="cls-5" x="26.44" y="523.94" width="72.12" height="9.91" rx="4.89"/><rect class="cls-5" x="26.44" y="554.86" width="72.12" height="9.91" rx="4.89"/><rect class="cls-2" x="91.98" y="9.57" width="13.18" height="590.38"/><polygon class="cls-3" points="110.56 594.51 105.11 600 105.06 9.59 110.57 4.08 110.56 594.51"/><polygon class="cls-4" points="105.12 9.57 91.95 9.57 98.56 4.09 110.56 4.09 105.12 9.57"/></g></g></svg>