<svg xmlns="http://www.w3.org/2000/svg" viewBox="0 0 120 604.54"><defs><style>.cls-1,.cls-2,.cls-3,.cls-5{fill:none;}.cls-2{stroke:#009245;stroke-width:8px;}.cls-2,.cls-3,.cls-5{stroke-linecap:round;}.cls-2,.cls-3,.cls-4,.cls-5{stroke-miterlimit:10;}.cls-3{stroke:#00c92d;stroke-width:2px;}.cls-4{fill:#8cc63f;stroke:#754c24;stroke-width:0.25px;}.cls-5{stroke:#006837;}</style></defs><g id="Layer_2" data-name="Layer 2"><g id="Ladder_1" data-name="Ladder 1"><rect id="Background_for_padding_" data-name="Background (for padding)" class="cls-1" y="2.94" width="120" height="600"/><path id="Vine" class="cls-2" d="M76.5,4a474.67,474.67,0,0,1,6.32,59.57c2.08,48.53-.5,71.49-6.32,97.65-9.54,42.87-20.25,48.13-19,76.72,1.26,28.39,12.15,30.35,15.81,56.66,7.34,52.67-33,67.88-31.43,121.31,1.22,40,25.68,38.36,32.22,95.77,3.54,31-.43,65.23-15.15,81.81a20.69,20.69,0,0,1-8.37,5.88c-11,3.94-26.85-2.64-27.87-12.13-1.18-11,18.06-22.82,21.61-19.76,1.55,1.34,1.27,6.51-1.18,8.86a5.71,5.71,0,0,1-3.83,1.46"/><path id="Vine-2" data-name="Vine" class="cls-3" d="M76.72,5.35a472.7,472.7,0,0,1,6.1,58.22c2.07,48.45-.48,71.37-6.32,97.65-9.54,42.87-20.25,48.13-19,76.72,1.26,28.39,12.15,30.35,15.81,56.66,7.34,52.67-33,67.88-31.43,121.31,1.22,40,25.68,38.36,32.22,95.77,3.54,31-.43,65.23-15.15,81.81a20.69,20.69,0,0,1-8.37,5.88c-11,3.94-26.85-2.64-27.87-12.13-1.18-11,18.06-22.82,21.61-19.76,1.55,1.34,1.27,6.51-1.18,8.86a5.71,5.71,0,0,1-3.83,1.46"/><g id="Leaf"><path class="cls-4" d="M79.29,558.35c2.18-1.94,3.78-1.71,12.84-2.13,7.4-.35,9.31-.64,9.56.37s-1.79,2.4-8.88,8.82C87.64,570.11,87,571,85,571.59c-3.63,1.06-8.84.17-9.85-3.46C74.28,565,76.79,560.57,79.29,558.35Z"/><line class="cls-5" x1="75.14" y1="568.13" x2="72.67" y2="570.02"/><line class="cls-5" x1="75.14" y1="568.13" x2="90.81" y2="560.85"/></g><g id="Leaf-2" data-name="Leaf"><path class="cls-4" d="M86.65,516.29c2.52-1.33,4-.7,12.94,1.2,7.27,1.54,9.19,1.75,9.22,2.79s-2.25,1.88-10.48,6.32c-6,3.25-6.86,4-8.91,4-3.75.1-8.64-2.09-8.85-5.88C80.38,521.47,83.75,517.82,86.65,516.29Z"/><line class="cls-5" x1="80.57" y1="524.75" x2="77.76" y2="525.96"/><line class="cls-5" x1="80.57" y1="524.75" x2="97.33" y2="521.66"/></g><g id="Leaf-3" data-name="Leaf"><path class="cls-4" d="M68.63,449.89c1.88-1.81,3.26-1.59,11.09-2,6.4-.32,8-.59,8.26.35s-1.55,2.23-7.67,8.22c-4.47,4.38-5,5.23-6.75,5.76-3.14,1-7.64.16-8.51-3.23C64.3,456.07,66.47,452,68.63,449.89Z"/><line class="cls-5" x1="65.05" y1="459" x2="62.92" y2="460.77"/><line class="cls-5" x1="65.05" y1="459" x2="78.58" y2="452.22"/></g><g id="Leaf-4" data-name="Leaf"><path class="cls-4" d="M54.06,390.94c2.79-.29,4,.88,11.77,6.05,6.34,4.22,8.08,5.14,7.78,6.14s-2.7.9-11.82,1.94c-6.67.75-7.68,1.11-9.62.38-3.56-1.33-7.45-5.25-6.47-8.89C46.56,393.41,50.86,391.27,54.06,390.94Z"/><line class="cls-5" x1="45.7" y1="396.56" x2="42.69" y2="396.63"/><line class="cls-5" x1="45.7" y1="396.56" x2="62.41" y2="400.05"/></g><g id="Leaf-5" data-name="Leaf"><path class="cls-4" d="M67.73,349.19c2.29-.88,3.59-.36,11.41,1.39,6.38,1.42,8.07,1.65,8,2.42s-2.06,1.3-9.52,4.27c-5.45,2.16-6.22,2.66-8,2.62-3.32-.07-7.57-1.88-7.61-4.69C62,352.77,65.1,350.21,67.73,349.19Z"/><line class="cls-5" x1="62.02" y1="355.2" x2="59.49" y2="355.99"/><line class="cls-5" x1="62.02" y1="355.2" x2="76.98" y2="353.57"/></g><g id="Leaf-6" data-name="Leaf"><path class="cls-4" d="M29.35,416.4c-2.4.39-3.59-.4-11-3.75-6-2.74-7.64-3.31-7.49-4.07s2.24-.84,10.08-2.19c5.73-1,6.57-1.32,8.34-.9,3.26.76,7.11,3.43,6.67,6.2C35.61,414.08,32.11,416,29.35,416.4Z"/><line class="cls-5" x1="35.99" y1="411.69" x2="38.61" y2="411.44"/><line class="cls-5" x1="35.99" y1="411.69" x2="21.02" y2="410.16"/></g><g id="Leaf-7" data-name="Leaf"><path class="cls-4" d="M80.27,300.33c1.44-1.56,2.54-1.6,8.73-3,5.06-1.15,6.36-1.59,6.56-.95s-1.16,1.82-5.84,7c-3.42,3.77-3.85,4.46-5.19,5.09-2.46,1.15-6,1.21-6.84-1.08C77,305.37,78.62,302.12,80.27,300.33Z"/><line class="cls-5" x1="77.69" y1="307.35" x2="76.05" y2="308.92"/><line class="cls-5" x1="77.69" y1="307.35" x2="88.23" y2="300.56"/></g><g id="Leaf-8" data-name="Leaf"><path class="cls-4" d="M69,244.11c2.29-.89,3.6-.36,11.41,1.39,6.38,1.42,8.07,1.65,8.06,2.42s-2.06,1.3-9.53,4.27c-5.45,2.16-6.22,2.66-8,2.62-3.33-.07-7.57-1.88-7.62-4.69C63.25,247.69,66.37,245.12,69,244.11Z"/><line class="cls-5" x1="63.28" y1="250.12" x2="60.76" y2="250.91"/><line class="cls-5" x1="63.28" y1="250.12" x2="78.25" y2="248.49"/></g><g id="Leaf-9" data-name="Leaf"><path class="cls-4" d="M76.23,192c1.83.36,2.49,1.09,7,4.75,3.64,3,4.66,3.7,4.36,4.09s-1.83-.06-7.81-1.18c-4.37-.83-5.06-.85-6.23-1.51-2.16-1.21-4.25-3.64-3.24-5.09C71.14,191.76,74.14,191.55,76.23,192Z"/><line class="cls-5" x1="70.26" y1="193.02" x2="68.32" y2="192.53"/><line class="cls-5" x1="70.26" y1="193.02" x2="80.65" y2="197.48"/></g><g id="Leaf-10" data-name="Leaf"><path class="cls-4" d="M91,123.5c2.06-.89,3.24-.36,10.29,1.39,5.76,1.42,7.29,1.65,7.27,2.42s-1.85,1.3-8.59,4.26c-4.92,2.17-5.62,2.67-7.25,2.63-3-.07-6.84-1.88-6.88-4.69C85.78,127.08,88.6,124.51,91,123.5Z"/><line class="cls-5" x1="85.81" y1="129.51" x2="83.53" y2="130.3"/><line class="cls-5" x1="85.81" y1="129.51" x2="99.32" y2="127.88"/></g><g id="Leaf-11" data-name="Leaf"><path class="cls-4" d="M71,115.38c-2.21.15-3.2-.61-9.48-4-5.13-2.8-6.53-3.42-6.31-4.06s2.12-.56,9.34-1.14c5.29-.42,6.08-.64,7.64-.15,2.85.9,6,3.48,5.33,5.83C76.94,113.85,73.56,115.2,71,115.38Z"/><line class="cls-5" x1="77.55" y1="111.82" x2="79.94" y2="111.8"/><line class="cls-5" x1="77.55" y1="111.82" x2="64.2" y2="109.39"/></g><g id="Leaf-12" data-name="Leaf"><path class="cls-4" d="M94,86.42c2-1.29,3.12-.52,9.88,2,5.52,2.08,7,2.41,7,3.53s-1.78,1.9-8.24,6.23c-4.72,3.16-5.39,3.88-7,3.83a7.13,7.13,0,0,1-6.59-6.85C89.07,91.65,91.77,87.9,94,86.42Z"/><line class="cls-5" x1="89.1" y1="95.19" x2="86.92" y2="96.35"/><line class="cls-5" x1="89.1" y1="95.19" x2="102.05" y2="92.82"/></g><g id="Leaf-13" data-name="Leaf"><path class="cls-4" d="M85,15.62c1.32-2.24,2.65-2.71,9.8-6.58,5.84-3.17,7.31-4.13,7.72-3.51s-.91,2.42-5.18,9.79c-3.11,5.39-3.45,6.3-4.9,7.49-2.68,2.19-7,3.61-8.63,1.42C82.47,22.33,83.52,18.19,85,15.62Z"/><line class="cls-5" x1="83.85" y1="24.23" x2="82.29" y2="26.55"/><line class="cls-5" x1="83.85" y1="24.23" x2="94.79" y2="12.86"/></g><g id="Leaf-14" data-name="Leaf"><path class="cls-4" d="M53.81,579.25c-.92-2.2-.54-3.55.49-11.47.84-6.46.93-8.17,1.61-8.22s1.27,1.94,4.34,9.11c2.24,5.24,2.72,6,2.81,7.77.15,3.31-1.17,7.69-3.62,8C57.31,584.66,54.87,581.77,53.81,579.25Z"/><line class="cls-5" x1="59.44" y1="584.41" x2="60.29" y2="586.86"/><line class="cls-5" x1="59.44" y1="584.41" x2="57.06" y2="569.67"/></g><g id="Leaf-15" data-name="Leaf"><path class="cls-4" d="M62.21,539.87c-2.13-1-2.65-2.54-6.66-10.4-3.28-6.42-4.26-8-3.72-8.68s2.26.45,9.27,3.69c5.11,2.36,6,2.52,7.15,4,2.17,2.73,3.76,7.79,1.87,10.41C68.49,541.17,64.65,541,62.21,539.87Z"/><line class="cls-5" x1="70.12" y1="538.89" x2="72.35" y2="540.19"/><line class="cls-5" x1="70.12" y1="538.89" x2="59.03" y2="528.43"/></g><g id="Leaf-16" data-name="Leaf"><path class="cls-4" d="M60.3,500.6c-2,1.92-3.33,1.15-11.15-.93-6.38-1.7-8-1.87-8.2-3.27s1.66-2.63,8-9c4.67-4.67,5.29-5.67,7-5.86,3.17-.33,7.61,2.36,8.3,7.43C64.92,493.34,62.55,498.4,60.3,500.6Z"/><line class="cls-5" x1="64.32" y1="488.95" x2="66.54" y2="487.17"/><line class="cls-5" x1="64.32" y1="488.95" x2="50.51" y2="493.96"/></g><g id="Leaf-17" data-name="Leaf"><path class="cls-4" d="M34.92,450.88c-2.32.09-3.38-1.05-10.07-6.24-5.46-4.23-7-5.18-6.74-6.07s2.22-.67,9.8-1.06c5.55-.29,6.38-.55,8,.22,3,1.43,6.43,5.25,5.75,8.52C41.09,449.07,37.58,450.77,34.92,450.88Z"/><line class="cls-5" x1="41.69" y1="446.25" x2="44.2" y2="446.36"/><line class="cls-5" x1="41.69" y1="446.25" x2="27.59" y2="442.06"/></g><g id="Leaf-18" data-name="Leaf"><path class="cls-4" d="M42.22,370c-2.32.09-3.38-1-10.07-6.23-5.46-4.24-6.95-5.19-6.74-6.08s2.22-.66,9.8-1.06c5.55-.29,6.38-.55,8,.23,3,1.43,6.44,5.24,5.75,8.51C48.39,368.22,44.88,369.92,42.22,370Z"/><line class="cls-5" x1="48.98" y1="365.4" x2="51.5" y2="365.51"/><line class="cls-5" x1="48.98" y1="365.4" x2="34.89" y2="361.21"/></g><g id="Leaf-19" data-name="Leaf"><path class="cls-4" d="M59,333.72c-2.14-1.25-2.66-3.15-6.72-12.9-3.32-8-4.3-9.9-3.77-10.77s2.27.54,9.29,4.51c5.13,2.9,6,3.09,7.18,4.93,2.19,3.37,3.8,9.66,1.93,12.94C65.26,335.28,61.42,335.14,59,333.72Z"/><line class="cls-5" x1="66.88" y1="332.43" x2="69.11" y2="334.02"/><line class="cls-5" x1="66.88" y1="332.43" x2="55.73" y2="319.5"/></g><g id="Leaf-20" data-name="Leaf"><path class="cls-4" d="M50.41,217.4c-1.7-1.09-2.12-2.76-5.34-11.33-2.63-7-3.42-8.69-3-9.46s1.8.47,7.37,4c4.08,2.55,4.76,2.72,5.7,4.33,1.74,3,3,8.49,1.54,11.38C55.4,218.77,52.35,218.66,50.41,217.4Z"/><line class="cls-5" x1="56.69" y1="216.28" x2="58.46" y2="217.67"/><line class="cls-5" x1="56.69" y1="216.28" x2="47.83" y2="204.91"/></g><g id="Leaf-21" data-name="Leaf"><path class="cls-4" d="M60.31,289.22c-2.7,0-3.94-.61-11.74-3.66-6.37-2.49-8.1-3.05-7.85-3.57s2.58-.39,11.43-.62c6.46-.17,7.43-.32,9.35.13,3.53.84,7.5,3.08,6.71,5C67.51,288.16,63.42,289.15,60.31,289.22Z"/><line class="cls-5" x1="68.21" y1="286.5" x2="71.14" y2="286.57"/><line class="cls-5" x1="68.2" y1="286.5" x2="51.77" y2="284.04"/></g><g id="Leaf-22" data-name="Leaf"><path class="cls-4" d="M69.34,165.36c-2,.91-3.39.25-11.32-2.11-6.47-1.92-8.16-2.25-8.32-3.14s1.69-1.4,8.22-4.47c4.76-2.25,5.39-2.78,7.15-2.66,3.22.23,7.72,2.5,8.41,5.73C74.06,161.5,71.64,164.31,69.34,165.36Z"/><line class="cls-5" x1="73.48" y1="158.71" x2="75.73" y2="157.91"/><line class="cls-5" x1="73.48" y1="158.71" x2="59.42" y2="159.91"/></g><g id="Leaf-23" data-name="Leaf"><path class="cls-4" d="M72.23,59.46c-2.16.23-3.31-.85-10.27-5.65-5.68-3.93-7.2-4.79-7.12-5.69s2-.8,9-1.63c5.15-.61,5.9-.92,7.54-.24,3,1.26,6.73,4.88,6.53,8.19C77.77,57.3,74.71,59.2,72.23,59.46Z"/><line class="cls-5" x1="77.95" y1="54.44" x2="80.31" y2="54.4"/><line class="cls-5" x1="77.95" y1="54.44" x2="64.18" y2="51.06"/></g></g></g></svg>