<svg xmlns="http://www.w3.org/2000/svg" viewBox="0 0 120 604.35"><defs><style>.cls-1,.cls-2,.cls-3,.cls-5{fill:none;}.cls-2{stroke:#009245;stroke-width:8px;}.cls-2,.cls-3,.cls-5{stroke-linecap:round;}.cls-2,.cls-3,.cls-4,.cls-5{stroke-miterlimit:10;}.cls-3{stroke:#00c92d;stroke-width:2px;}.cls-4{fill:#8cc63f;stroke:#754c24;stroke-width:0.25px;}.cls-5{stroke:#006837;}</style></defs><g id="Layer_2" data-name="Layer 2"><g id="Ladder_1_no_start_" data-name="Ladder 1 (no start)"><rect id="Background_for_padding_" data-name="Background (for padding)" class="cls-1" y="7.65" width="120" height="596.35"/><path id="Vine" class="cls-2" d="M47.44,600.35a465.34,465.34,0,0,1-6.33-58.86c-2.07-47.95.51-70.62,6.33-96.47,9.54-42.36,20.25-47.56,19-75.8-1.27-28.06-12.15-30-15.82-56-7.34-52,33.06-67.06,31.43-119.85-.88-28.59-13.89-35.65-23.51-58.76a123.62,123.62,0,0,1-8.71-35.86c-1-9.14-.86-17.06,2.5-47.26C53.69,39.11,55.62,23,58.24,4"/><path id="Vine-2" data-name="Vine" class="cls-3" d="M47.21,599a463,463,0,0,1-6.1-57.52C39,493.63,41.59,471,47.44,445c9.54-42.36,20.25-47.56,19-75.8-1.27-28.06-12.15-30-15.82-56-7.34-52,33.06-67.06,31.43-119.85-.88-28.59-13.89-35.65-23.51-58.76C52.8,120.87,51,109.38,49.81,98.76c-1.14-10.22-1-18.9,3.95-59.54C55.5,24.8,57.07,12.72,58.24,4"/><g id="Leaf"><path class="cls-4" d="M44.64,52.65c-2.17,1.91-3.77,1.69-12.84,2.11-7.4.34-9.31.63-9.55-.37S24,52,31.12,45.67C36.3,41,37,40.13,38.94,39.56c3.63-1,8.85-.16,9.85,3.43C49.66,46.1,47.15,50.45,44.64,52.65Z"/><line class="cls-5" x1="48.79" y1="42.99" x2="51.26" y2="41.11"/><line class="cls-5" x1="48.79" y1="42.99" x2="33.12" y2="50.18"/></g><g id="Leaf-2" data-name="Leaf"><path class="cls-4" d="M37.29,94.2c-2.53,1.32-4,.7-12.94-1.18-7.27-1.53-9.2-1.73-9.22-2.76S17.37,88.41,25.61,84c6-3.21,6.86-3.91,8.9-4,3.76-.11,8.65,2.06,8.86,5.81C43.56,89.09,40.19,92.69,37.29,94.2Z"/><line class="cls-5" x1="43.37" y1="85.85" x2="46.17" y2="84.65"/><line class="cls-5" x1="43.37" y1="85.85" x2="26.6" y2="88.9"/></g><g id="Leaf-3" data-name="Leaf"><path class="cls-4" d="M55.3,159.81c-1.88,1.78-3.26,1.57-11.09,2-6.39.32-8,.59-8.25-.34s1.54-2.21,7.66-8.13c4.47-4.32,5.05-5.16,6.76-5.69,3.14-1,7.64-.15,8.51,3.19C59.64,153.7,57.47,157.76,55.3,159.81Z"/><line class="cls-5" x1="58.89" y1="150.8" x2="61.02" y2="149.06"/><line class="cls-5" x1="58.89" y1="150.8" x2="45.35" y2="157.5"/></g><g id="Leaf-4" data-name="Leaf"><path class="cls-4" d="M69.87,218.05c-2.78.28-4-.87-11.76-6C51.77,207.9,50,207,50.33,206s2.69-.9,11.82-1.92c6.67-.74,7.68-1.09,9.61-.38,3.56,1.32,7.46,5.19,6.47,8.79C77.38,215.61,73.08,217.73,69.87,218.05Z"/><line class="cls-5" x1="78.23" y1="212.5" x2="81.24" y2="212.42"/><line class="cls-5" x1="78.23" y1="212.5" x2="61.53" y2="209.05"/></g><g id="Leaf-5" data-name="Leaf"><path class="cls-4" d="M56.21,259.3c-2.29.87-3.6.36-11.41-1.37-6.38-1.41-8.07-1.63-8.06-2.4s2.06-1.28,9.53-4.21c5.45-2.14,6.22-2.63,8-2.59,3.33.06,7.57,1.86,7.62,4.63C62,255.76,58.83,258.3,56.21,259.3Z"/><line class="cls-5" x1="61.92" y1="253.36" x2="64.44" y2="252.58"/><line class="cls-5" x1="61.92" y1="253.36" x2="46.95" y2="254.97"/></g><g id="Leaf-6" data-name="Leaf"><path class="cls-4" d="M94.58,192.9c2.4-.39,3.6.39,11,3.7,6,2.71,7.64,3.28,7.49,4s-2.25.84-10.09,2.17c-5.72,1-6.57,1.3-8.34.89-3.25-.76-7.11-3.4-6.67-6.13C88.33,195.18,91.83,193.34,94.58,192.9Z"/><line class="cls-5" x1="87.94" y1="197.55" x2="85.33" y2="197.8"/><line class="cls-5" x1="87.94" y1="197.55" x2="102.91" y2="199.07"/></g><g id="Leaf-7" data-name="Leaf"><path class="cls-4" d="M43.66,307.57c-1.44,1.54-2.53,1.59-8.73,3-5.06,1.14-6.36,1.57-6.55.93s1.16-1.79,5.84-6.88c3.42-3.72,3.85-4.4,5.19-5,2.45-1.14,6.05-1.19,6.83,1.07C46.92,302.6,45.32,305.8,43.66,307.57Z"/><line class="cls-5" x1="46.24" y1="300.64" x2="47.88" y2="299.09"/><line class="cls-5" x1="46.24" y1="300.64" x2="35.71" y2="307.34"/></g><g id="Leaf-8" data-name="Leaf"><path class="cls-4" d="M54.94,363.12c-2.28.87-3.59.36-11.4-1.37-6.38-1.41-8.08-1.63-8.06-2.4s2.06-1.28,9.52-4.21c5.46-2.14,6.23-2.63,8-2.59,3.33.06,7.57,1.86,7.61,4.63C60.69,359.58,57.57,362.12,54.94,363.12Z"/><line class="cls-5" x1="60.65" y1="357.18" x2="63.18" y2="356.4"/><line class="cls-5" x1="60.65" y1="357.18" x2="45.69" y2="358.79"/></g><g id="Leaf-9" data-name="Leaf"><path class="cls-4" d="M47.7,414.65c-1.82-.36-2.48-1.08-6.94-4.7-3.64-2.95-4.67-3.66-4.37-4s1.83.06,7.82,1.17c4.37.81,5.06.83,6.23,1.48,2.15,1.2,4.25,3.61,3.23,5C52.79,414.85,49.8,415.05,47.7,414.65Z"/><line class="cls-5" x1="53.67" y1="413.6" x2="55.62" y2="414.09"/><line class="cls-5" x1="53.67" y1="413.6" x2="43.28" y2="409.19"/></g><g id="Leaf-10" data-name="Leaf"><path class="cls-4" d="M33,482.29c-2.07.87-3.25.35-10.3-1.38-5.75-1.41-7.28-1.63-7.27-2.39s1.86-1.29,8.6-4.21c4.92-2.15,5.62-2.63,7.25-2.6,3,.07,6.83,1.86,6.87,4.64C38.16,478.75,35.34,481.28,33,482.29Z"/><line class="cls-5" x1="38.12" y1="476.35" x2="40.4" y2="475.57"/><line class="cls-5" x1="38.12" y1="476.35" x2="24.62" y2="477.95"/></g><g id="Leaf-11" data-name="Leaf"><path class="cls-4" d="M52.91,490.31c2.21-.16,3.2.6,9.48,4,5.13,2.77,6.53,3.37,6.31,4s-2.12.56-9.35,1.13c-5.28.42-6.08.64-7.63.15-2.86-.88-6-3.44-5.33-5.75C47,491.82,50.37,490.49,52.91,490.31Z"/><line class="cls-5" x1="46.39" y1="493.83" x2="44" y2="493.84"/><line class="cls-5" x1="46.39" y1="493.83" x2="59.74" y2="496.22"/></g><g id="Leaf-12" data-name="Leaf"><path class="cls-4" d="M29.89,518.92c-2,1.27-3.11.52-9.87-2-5.52-2.06-7-2.38-7-3.5s1.78-1.87,8.24-6.15c4.72-3.12,5.39-3.83,7-3.78a7.07,7.07,0,0,1,6.59,6.76C34.87,513.76,32.16,517.45,29.89,518.92Z"/><line class="cls-5" x1="34.83" y1="510.25" x2="37.02" y2="509.11"/><line class="cls-5" x1="34.83" y1="510.25" x2="21.88" y2="512.6"/></g><g id="Leaf-13" data-name="Leaf"><path class="cls-4" d="M38.9,588.87c-1.32,2.21-2.65,2.67-9.81,6.5-5.84,3.13-7.3,4.08-7.72,3.47s.91-2.39,5.18-9.67c3.12-5.33,3.46-6.23,4.91-7.41,2.67-2.16,7-3.56,8.63-1.39C41.46,582.24,40.41,586.33,38.9,588.87Z"/><line class="cls-5" x1="40.09" y1="580.37" x2="41.65" y2="578.07"/><line class="cls-5" x1="40.09" y1="580.37" x2="29.14" y2="591.6"/></g><g id="Leaf-14" data-name="Leaf"><path class="cls-4" d="M66.49,17.71c1.69,1.52,1.88,2.9,4.06,10.44,1.78,6.16,2.37,7.71,1.78,8.08s-1.91-1.13-7.49-6.07c-4.08-3.61-4.8-4-5.58-5.59-1.44-2.88-2-7.4.13-8.81C61.21,14.54,64.55,16,66.49,17.71Z"/><line class="cls-5" x1="59.39" y1="15.76" x2="57.66" y2="13.98"/><line class="cls-5" x1="59.39" y1="15.76" x2="67.32" y2="27.77"/></g><g id="Leaf-15" data-name="Leaf"><path class="cls-4" d="M61.73,70.91c2.13,1,2.64,2.51,6.66,10.27,3.28,6.34,4.25,7.88,3.71,8.57s-2.26-.44-9.26-3.64c-5.12-2.33-6-2.49-7.15-4-2.18-2.7-3.77-7.7-1.88-10.29C55.45,69.63,59.28,69.76,61.73,70.91Z"/><line class="cls-5" x1="53.81" y1="71.87" x2="51.59" y2="70.59"/><line class="cls-5" x1="53.81" y1="71.87" x2="64.9" y2="82.21"/></g><g id="Leaf-16" data-name="Leaf"><path class="cls-4" d="M63.64,109.7c2-1.89,3.33-1.13,11.14.93,6.38,1.67,8,1.84,8.2,3.23s-1.65,2.6-8,8.91c-4.68,4.61-5.29,5.6-7,5.78-3.17.34-7.62-2.32-8.31-7.33C59,116.88,61.38,111.87,63.64,109.7Z"/><line class="cls-5" x1="59.61" y1="121.22" x2="57.4" y2="122.97"/><line class="cls-5" x1="59.61" y1="121.22" x2="73.43" y2="116.27"/></g><g id="Leaf-17" data-name="Leaf"><path class="cls-4" d="M89,158.83c2.32-.09,3.38,1,10.07,6.16,5.46,4.19,7,5.12,6.73,6s-2.21.66-9.8,1c-5.54.29-6.37.55-8-.22-3-1.41-6.43-5.19-5.75-8.41C82.84,160.62,86.36,158.94,89,158.83Z"/><line class="cls-5" x1="82.25" y1="163.41" x2="79.74" y2="163.3"/><line class="cls-5" x1="82.25" y1="163.41" x2="96.34" y2="167.55"/></g><g id="Leaf-18" data-name="Leaf"><path class="cls-4" d="M81.72,238.71c2.32-.09,3.38,1,10.07,6.16,5.46,4.19,6.95,5.12,6.74,6s-2.22.66-9.81,1c-5.54.29-6.37.54-8-.22-3-1.42-6.43-5.19-5.75-8.41C75.54,240.49,79.06,238.82,81.72,238.71Z"/><line class="cls-5" x1="74.95" y1="243.29" x2="72.44" y2="243.18"/><line class="cls-5" x1="74.95" y1="243.29" x2="89.05" y2="247.43"/></g><g id="Leaf-19" data-name="Leaf"><path class="cls-4" d="M65,274.59c2.13,1.23,2.66,3.1,6.72,12.74C75,295.19,76,297.11,75.45,298s-2.26-.53-9.28-4.45c-5.14-2.87-6-3.06-7.18-4.87-2.19-3.34-3.81-9.55-1.93-12.79C58.68,273.05,62.52,273.18,65,274.59Z"/><line class="cls-5" x1="57.06" y1="275.86" x2="54.82" y2="274.28"/><line class="cls-5" x1="57.06" y1="275.85" x2="68.21" y2="288.63"/></g><g id="Leaf-20" data-name="Leaf"><path class="cls-4" d="M73.53,389.51c1.7,1.08,2.11,2.73,5.34,11.19,2.63,6.91,3.41,8.59,3,9.35s-1.8-.47-7.38-3.91c-4.07-2.52-4.75-2.69-5.7-4.28-1.73-2.93-3-8.39-1.53-11.24C68.54,388.15,71.58,388.27,73.53,389.51Z"/><line class="cls-5" x1="67.25" y1="390.62" x2="65.48" y2="389.24"/><line class="cls-5" x1="67.25" y1="390.62" x2="76.1" y2="401.85"/></g><g id="Leaf-21" data-name="Leaf"><path class="cls-4" d="M63.62,318.55c2.71-.05,3.94.61,11.74,3.62,6.37,2.46,8.11,3,7.86,3.52s-2.59.39-11.43.62c-6.47.17-7.44.32-9.35-.13-3.53-.83-7.51-3.05-6.71-4.94C56.42,319.6,60.52,318.62,63.62,318.55Z"/><line class="cls-5" x1="55.73" y1="321.24" x2="52.8" y2="321.17"/><line class="cls-5" x1="55.73" y1="321.24" x2="72.17" y2="323.67"/></g><g id="Leaf-22" data-name="Leaf"><path class="cls-4" d="M54.6,440.93c2-.9,3.38-.25,11.31,2.08,6.48,1.9,8.16,2.23,8.32,3.1s-1.69,1.39-8.21,4.42c-4.77,2.22-5.4,2.75-7.15,2.63-3.23-.23-7.73-2.47-8.41-5.66C49.87,444.74,52.3,442,54.6,440.93Z"/><line class="cls-5" x1="50.46" y1="447.5" x2="48.2" y2="448.28"/><line class="cls-5" x1="50.46" y1="447.5" x2="64.52" y2="446.31"/></g><g id="Leaf-23" data-name="Leaf"><path class="cls-4" d="M51.71,545.55c2.16-.22,3.3.84,10.26,5.59,5.69,3.88,7.21,4.73,7.13,5.62s-2,.79-9,1.61c-5.16.61-5.9.91-7.55.23-3-1.24-6.72-4.82-6.52-8.08C46.17,547.69,49.23,545.81,51.71,545.55Z"/><line class="cls-5" x1="45.99" y1="550.52" x2="43.62" y2="550.55"/><line class="cls-5" x1="45.99" y1="550.52" x2="59.75" y2="553.86"/></g></g></g></svg>