<svg xmlns="http://www.w3.org/2000/svg" viewBox="0 0 120 604.29"><defs><style>.cls-1,.cls-2,.cls-3{fill:none;}.cls-2{stroke:#8c6239;stroke-width:7px;}.cls-2,.cls-3{stroke-linecap:round;stroke-miterlimit:10;}.cls-3{stroke:#a67c52;stroke-width:5px;}</style></defs><g id="Layer_2" data-name="Layer 2"><g id="Ladder_2" data-name="Ladder 2"><rect id="Background_for_padding_" data-name="Background (for padding)" class="cls-1" y="6.21" width="120" height="597.29"/><line class="cls-2" x1="19.51" y1="3.5" x2="19.51" y2="600.29"/><line class="cls-2" x1="101.51" y1="4" x2="101.51" y2="600.79"/><line class="cls-3" x1="19.5" y1="24.39" x2="101.5" y2="24.39"/><line class="cls-3" x1="19.5" y1="67.16" x2="101.5" y2="67.16"/><line class="cls-3" x1="22" y1="109.93" x2="101" y2="109.93"/><line class="cls-3" x1="22" y1="152.7" x2="101.5" y2="152.7"/><line class="cls-3" x1="19" y1="195.47" x2="101" y2="195.47"/><line class="cls-3" x1="19" y1="238.24" x2="101" y2="238.24"/><line class="cls-3" x1="19" y1="281.01" x2="101" y2="281.01"/><line class="cls-3" x1="19" y1="323.78" x2="101" y2="323.78"/><line class="cls-3" x1="19" y1="366.55" x2="101" y2="366.55"/><line class="cls-3" x1="19" y1="409.32" x2="101" y2="409.32"/><line class="cls-3" x1="20" y1="452.09" x2="102" y2="452.09"/><line class="cls-3" x1="20" y1="494.86" x2="102" y2="494.86"/><line class="cls-3" x1="19" y1="537.62" x2="101" y2="537.62"/><line class="cls-3" x1="19" y1="580.39" x2="101" y2="580.39"/></g></g></svg>