<svg xmlns="http://www.w3.org/2000/svg" xmlns:xlink="http://www.w3.org/1999/xlink" viewBox="0 0 120 600.89"><defs><style>.cls-1{fill:url(#Steel);}.cls-2{fill:url(#Steel_3);}.cls-3{fill:url(#Steel_2);}.cls-4{fill:url(#Steel-2);}.cls-5{fill:url(#Steel_3-2);}.cls-6{fill:url(#Steel_2-2);}.cls-7{fill:url(#Steel-3);}.cls-8{fill:url(#Steel_3-3);}.cls-9{fill:url(#Steel_2-3);}.cls-10{fill:url(#Steel-4);}.cls-11{fill:url(#Steel_3-4);}.cls-12{fill:url(#Steel_2-4);}.cls-13{fill:url(#Steel-5);}.cls-14{fill:url(#Steel_3-5);}.cls-15{fill:url(#Steel_2-5);}.cls-16{fill:url(#Steel-6);}.cls-17{fill:url(#Steel_3-6);}.cls-18{fill:url(#Steel_2-6);}.cls-19{fill:url(#Steel-7);}.cls-20{fill:url(#Steel_3-7);}.cls-21{fill:url(#Steel_2-7);}.cls-22{fill:url(#Steel-8);}.cls-23{fill:url(#Steel_3-8);}.cls-24{fill:url(#Steel_2-8);}.cls-25{fill:url(#Steel-9);}.cls-26{fill:url(#Steel_3-9);}.cls-27{fill:url(#Steel_2-9);}.cls-28{fill:url(#Steel-10);}.cls-29{fill:url(#Steel_3-10);}.cls-30{fill:url(#Steel_2-10);}.cls-31{fill:url(#Steel-11);}.cls-32{fill:url(#Steel_3-11);}.cls-33{fill:url(#Steel_2-11);}.cls-34{fill:url(#Steel-12);}.cls-35{fill:url(#Steel_3-12);}.cls-36{fill:url(#Steel_2-12);}.cls-37{fill:url(#Steel-13);}.cls-38{fill:url(#Steel_3-13);}.cls-39{fill:url(#Steel_2-13);}.cls-40{fill:url(#Steel-14);}.cls-41{fill:url(#Steel_3-14);}.cls-42{fill:url(#Steel_2-14);}.cls-43{fill:url(#Steel-15);}.cls-44{fill:url(#Steel_3-15);}.cls-45{fill:url(#Steel_2-15);}.cls-46{fill:url(#Steel-16);}.cls-47{fill:url(#Steel_3-16);}.cls-48{fill:url(#Steel_2-16);}.cls-49{fill:url(#Steel-17);}.cls-50{fill:url(#Steel_3-17);}.cls-51{fill:url(#Steel_2-17);}.cls-52{fill:url(#Steel-18);}.cls-53{fill:url(#Steel_3-18);}.cls-54{fill:url(#Steel_2-18);}.cls-55{fill:url(#Steel-19);}.cls-56{fill:url(#Steel_3-19);}.cls-57{fill:url(#Steel_2-19);}.cls-58{fill:url(#Steel-20);}.cls-59{fill:url(#Steel_3-20);}.cls-60{fill:url(#Steel_2-20);}.cls-61,.cls-62,.cls-63{fill:none;}.cls-61,.cls-62{stroke-linecap:round;stroke-linejoin:round;stroke-width:10px;}.cls-61{stroke:url(#Steel-21);}.cls-62{stroke:url(#Steel-22);}</style><linearGradient id="Steel" x1="12.2" y1="28.46" x2="101.52" y2="28.46" gradientUnits="userSpaceOnUse"><stop offset="0" stop-color="#e5e2df"/><stop offset="0" stop-color="#ded9d6"/><stop offset="0.04" stop-color="#cfccc9"/><stop offset="0.11" stop-color="#a8a8a8"/><stop offset="0.21" stop-color="#6a7072"/><stop offset="0.26" stop-color="#465053"/><stop offset="0.37" stop-color="#878d8f"/><stop offset="0.46" stop-color="#b7babb"/><stop offset="0.53" stop-color="#d5d6d6"/><stop offset="0.57" stop-color="#e0e0e0"/><stop offset="0.63" stop-color="#d6d7d8"/><stop offset="0.73" stop-color="#bcbfc2"/><stop offset="0.86" stop-color="#92989e"/><stop offset="0.88" stop-color="#8b9298"/><stop offset="1" stop-color="#d1d3d4"/><stop offset="1" stop-color="#a7a9ac"/></linearGradient><linearGradient id="Steel_3" x1="12.2" y1="24.51" x2="107.22" y2="24.51" gradientUnits="userSpaceOnUse"><stop offset="0" stop-color="#bfbdba"/><stop offset="0" stop-color="#c2bdbb"/><stop offset="0.04" stop-color="#b3afae"/><stop offset="0.12" stop-color="#8c8c8c"/><stop offset="0.22" stop-color="#4e5354"/><stop offset="0.26" stop-color="#31393b"/><stop offset="0.37" stop-color="#6e7374"/><stop offset="0.46" stop-color="#9ea0a1"/><stop offset="0.53" stop-color="#bcbdbd"/><stop offset="0.57" stop-color="#c7c7c7"/><stop offset="0.63" stop-color="#bdbebe"/><stop offset="0.73" stop-color="#a3a5a7"/><stop offset="0.85" stop-color="#797d81"/><stop offset="0.88" stop-color="#6e7378"/><stop offset="1" stop-color="#b0b2b3"/><stop offset="1" stop-color="#909194"/></linearGradient><linearGradient id="Steel_2" x1="101.52" y1="27.44" x2="107.22" y2="27.44" gradientUnits="userSpaceOnUse"><stop offset="0" stop-color="#a3a19f"/><stop offset="0" stop-color="#9c9896"/><stop offset="0.06" stop-color="#8d8b8a"/><stop offset="0.16" stop-color="#666a6a"/><stop offset="0.26" stop-color="#3c4547"/><stop offset="0.34" stop-color="#606667"/><stop offset="0.44" stop-color="#8f9293"/><stop offset="0.53" stop-color="#adaeae"/><stop offset="0.57" stop-color="#b8b8b8"/><stop offset="0.65" stop-color="#aeafb0"/><stop offset="0.77" stop-color="#94989b"/><stop offset="0.88" stop-color="#797f85"/><stop offset="1" stop-color="#9c9d9e"/><stop offset="1" stop-color="#888a8c"/></linearGradient><linearGradient id="Steel-2" x1="12.2" y1="57.01" x2="101.52" y2="57.01" xlink:href="#Steel"/><linearGradient id="Steel_3-2" x1="12.2" y1="53.06" x2="107.22" y2="53.06" xlink:href="#Steel_3"/><linearGradient id="Steel_2-2" x1="101.52" y1="56" x2="107.22" y2="56" xlink:href="#Steel_2"/><linearGradient id="Steel-3" x1="12.2" y1="85.57" x2="101.52" y2="85.57" xlink:href="#Steel"/><linearGradient id="Steel_3-3" x1="12.2" y1="81.62" x2="107.22" y2="81.62" xlink:href="#Steel_3"/><linearGradient id="Steel_2-3" x1="101.52" y1="84.56" x2="107.22" y2="84.56" xlink:href="#Steel_2"/><linearGradient id="Steel-4" x1="12.2" y1="114.13" x2="101.52" y2="114.13" xlink:href="#Steel"/><linearGradient id="Steel_3-4" x1="12.2" y1="110.18" x2="107.22" y2="110.18" xlink:href="#Steel_3"/><linearGradient id="Steel_2-4" x1="101.52" y1="113.11" x2="107.22" y2="113.11" xlink:href="#Steel_2"/><linearGradient id="Steel-5" x1="12.2" y1="199.8" x2="101.52" y2="199.8" xlink:href="#Steel"/><linearGradient id="Steel_3-5" x1="12.2" y1="195.85" x2="107.22" y2="195.85" xlink:href="#Steel_3"/><linearGradient id="Steel_2-5" x1="101.52" y1="198.78" x2="107.22" y2="198.78" xlink:href="#Steel_2"/><linearGradient id="Steel-6" x1="12.2" y1="228.35" x2="101.52" y2="228.35" xlink:href="#Steel"/><linearGradient id="Steel_3-6" x1="12.2" y1="224.4" x2="107.22" y2="224.4" xlink:href="#Steel_3"/><linearGradient id="Steel_2-6" x1="101.52" y1="227.34" x2="107.22" y2="227.34" xlink:href="#Steel_2"/><linearGradient id="Steel-7" x1="12.2" y1="142.68" x2="101.52" y2="142.68" xlink:href="#Steel"/><linearGradient id="Steel_3-7" x1="12.2" y1="138.73" x2="107.22" y2="138.73" xlink:href="#Steel_3"/><linearGradient id="Steel_2-7" x1="101.52" y1="141.67" x2="107.22" y2="141.67" xlink:href="#Steel_2"/><linearGradient id="Steel-8" x1="12.2" y1="171.24" x2="101.52" y2="171.24" xlink:href="#Steel"/><linearGradient id="Steel_3-8" x1="12.2" y1="167.29" x2="107.22" y2="167.29" xlink:href="#Steel_3"/><linearGradient id="Steel_2-8" x1="101.52" y1="170.23" x2="107.22" y2="170.23" xlink:href="#Steel_2"/><linearGradient id="Steel-9" x1="12.2" y1="285.47" x2="101.52" y2="285.47" xlink:href="#Steel"/><linearGradient id="Steel_3-9" x1="12.2" y1="281.51" x2="107.22" y2="281.51" xlink:href="#Steel_3"/><linearGradient id="Steel_2-9" x1="101.52" y1="284.45" x2="107.22" y2="284.45" xlink:href="#Steel_2"/><linearGradient id="Steel-10" x1="12.2" y1="256.91" x2="101.52" y2="256.91" xlink:href="#Steel"/><linearGradient id="Steel_3-10" x1="12.2" y1="252.96" x2="107.22" y2="252.96" xlink:href="#Steel_3"/><linearGradient id="Steel_2-10" x1="101.52" y1="255.9" x2="107.22" y2="255.9" xlink:href="#Steel_2"/><linearGradient id="Steel-11" x1="12.2" y1="371.14" x2="101.52" y2="371.14" xlink:href="#Steel"/><linearGradient id="Steel_3-11" x1="12.2" y1="367.18" x2="107.22" y2="367.18" xlink:href="#Steel_3"/><linearGradient id="Steel_2-11" x1="101.52" y1="370.12" x2="107.22" y2="370.12" xlink:href="#Steel_2"/><linearGradient id="Steel-12" x1="12.2" y1="399.69" x2="101.52" y2="399.69" xlink:href="#Steel"/><linearGradient id="Steel_3-12" x1="12.2" y1="395.74" x2="107.22" y2="395.74" xlink:href="#Steel_3"/><linearGradient id="Steel_2-12" x1="101.52" y1="398.68" x2="107.22" y2="398.68" xlink:href="#Steel_2"/><linearGradient id="Steel-13" x1="12.2" y1="314.02" x2="101.52" y2="314.02" xlink:href="#Steel"/><linearGradient id="Steel_3-13" x1="12.2" y1="310.07" x2="107.22" y2="310.07" xlink:href="#Steel_3"/><linearGradient id="Steel_2-13" x1="101.52" y1="313.01" x2="107.22" y2="313.01" xlink:href="#Steel_2"/><linearGradient id="Steel-14" x1="12.2" y1="342.58" x2="101.52" y2="342.58" xlink:href="#Steel"/><linearGradient id="Steel_3-14" x1="12.2" y1="338.63" x2="107.22" y2="338.63" xlink:href="#Steel_3"/><linearGradient id="Steel_2-14" x1="101.52" y1="341.57" x2="107.22" y2="341.57" xlink:href="#Steel_2"/><linearGradient id="Steel-15" x1="12.2" y1="456.81" x2="101.52" y2="456.81" xlink:href="#Steel"/><linearGradient id="Steel_3-15" x1="12.2" y1="452.85" x2="107.22" y2="452.85" xlink:href="#Steel_3"/><linearGradient id="Steel_2-15" x1="101.52" y1="455.79" x2="107.22" y2="455.79" xlink:href="#Steel_2"/><linearGradient id="Steel-16" x1="12.2" y1="428.25" x2="101.52" y2="428.25" xlink:href="#Steel"/><linearGradient id="Steel_3-16" x1="12.2" y1="424.3" x2="107.22" y2="424.3" xlink:href="#Steel_3"/><linearGradient id="Steel_2-16" x1="101.52" y1="427.24" x2="107.22" y2="427.24" xlink:href="#Steel_2"/><linearGradient id="Steel-17" x1="12.2" y1="542.48" x2="101.52" y2="542.48" xlink:href="#Steel"/><linearGradient id="Steel_3-17" x1="12.2" y1="538.52" x2="107.22" y2="538.52" xlink:href="#Steel_3"/><linearGradient id="Steel_2-17" x1="101.52" y1="541.46" x2="107.22" y2="541.46" xlink:href="#Steel_2"/><linearGradient id="Steel-18" x1="12.2" y1="571.03" x2="101.52" y2="571.03" xlink:href="#Steel"/><linearGradient id="Steel_3-18" x1="12.2" y1="567.08" x2="107.22" y2="567.08" xlink:href="#Steel_3"/><linearGradient id="Steel_2-18" x1="101.52" y1="570.02" x2="107.22" y2="570.02" xlink:href="#Steel_2"/><linearGradient id="Steel-19" x1="12.2" y1="485.36" x2="101.52" y2="485.36" xlink:href="#Steel"/><linearGradient id="Steel_3-19" x1="12.2" y1="481.41" x2="107.22" y2="481.41" xlink:href="#Steel_3"/><linearGradient id="Steel_2-19" x1="101.52" y1="484.35" x2="107.22" y2="484.35" xlink:href="#Steel_2"/><linearGradient id="Steel-20" x1="12.2" y1="513.92" x2="101.52" y2="513.92" xlink:href="#Steel"/><linearGradient id="Steel_3-20" x1="12.2" y1="509.97" x2="107.22" y2="509.97" xlink:href="#Steel_3"/><linearGradient id="Steel_2-20" x1="101.52" y1="512.91" x2="107.22" y2="512.91" xlink:href="#Steel_2"/><linearGradient id="Steel-21" x1="99.38" y1="301.62" x2="110.41" y2="301.62" xlink:href="#Steel"/><linearGradient id="Steel-22" x1="8.45" y1="301.62" x2="19.87" y2="301.62" xlink:href="#Steel"/></defs><g id="Layer_2" data-name="Layer 2"><g id="Ladder_4" data-name="Ladder 4"><g id="Step"><rect class="cls-1" x="12.2" y="25.52" width="89.32" height="5.88"/><polygon class="cls-2" points="101.52 25.52 12.2 25.52 19.62 23.49 107.22 23.49 101.52 25.52"/><polygon class="cls-3" points="107.22 28.62 101.52 31.4 101.52 25.52 107.22 23.49 107.22 28.62"/></g><g id="Step-2" data-name="Step"><rect class="cls-4" x="12.2" y="54.07" width="89.32" height="5.88"/><polygon class="cls-5" points="101.52 54.07 12.2 54.07 19.62 52.05 107.22 52.05 101.52 54.07"/><polygon class="cls-6" points="107.22 57.18 101.52 59.95 101.52 54.07 107.22 52.05 107.22 57.18"/></g><g id="Step-3" data-name="Step"><rect class="cls-7" x="12.2" y="82.63" width="89.32" height="5.88"/><polygon class="cls-8" points="101.52 82.63 12.2 82.63 19.62 80.61 107.22 80.61 101.52 82.63"/><polygon class="cls-9" points="107.22 85.73 101.52 88.51 101.52 82.63 107.22 80.61 107.22 85.73"/></g><g id="Step-4" data-name="Step"><rect class="cls-10" x="12.2" y="111.19" width="89.32" height="5.88"/><polygon class="cls-11" points="101.52 111.19 12.2 111.19 19.62 109.16 107.22 109.16 101.52 111.19"/><polygon class="cls-12" points="107.22 114.29 101.52 117.07 101.52 111.19 107.22 109.16 107.22 114.29"/></g><g id="Step-5" data-name="Step"><rect class="cls-13" x="12.2" y="196.86" width="89.32" height="5.88"/><polygon class="cls-14" points="101.52 196.86 12.2 196.86 19.62 194.83 107.22 194.83 101.52 196.86"/><polygon class="cls-15" points="107.22 199.96 101.52 202.74 101.52 196.86 107.22 194.83 107.22 199.96"/></g><g id="Step-6" data-name="Step"><rect class="cls-16" x="12.2" y="225.41" width="89.32" height="5.88"/><polygon class="cls-17" points="101.52 225.41 12.2 225.41 19.62 223.39 107.22 223.39 101.52 225.41"/><polygon class="cls-18" points="107.22 228.52 101.52 231.29 101.52 225.41 107.22 223.39 107.22 228.52"/></g><g id="Step-7" data-name="Step"><rect class="cls-19" x="12.2" y="139.74" width="89.32" height="5.88"/><polygon class="cls-20" points="101.52 139.74 12.2 139.74 19.62 137.72 107.22 137.72 101.52 139.74"/><polygon class="cls-21" points="107.22 142.85 101.52 145.62 101.52 139.74 107.22 137.72 107.22 142.85"/></g><g id="Step-8" data-name="Step"><rect class="cls-22" x="12.2" y="168.3" width="89.32" height="5.88"/><polygon class="cls-23" points="101.52 168.3 12.2 168.3 19.62 166.28 107.22 166.28 101.52 168.3"/><polygon class="cls-24" points="107.22 171.4 101.52 174.18 101.52 168.3 107.22 166.28 107.22 171.4"/></g><g id="Step-9" data-name="Step"><rect class="cls-25" x="12.2" y="282.53" width="89.32" height="5.88"/><polygon class="cls-26" points="101.52 282.53 12.2 282.53 19.62 280.5 107.22 280.5 101.52 282.53"/><polygon class="cls-27" points="107.22 285.63 101.52 288.41 101.52 282.53 107.22 280.5 107.22 285.63"/></g><g id="Step-10" data-name="Step"><rect class="cls-28" x="12.2" y="253.97" width="89.32" height="5.88"/><polygon class="cls-29" points="101.52 253.97 12.2 253.97 19.62 251.95 107.22 251.95 101.52 253.97"/><polygon class="cls-30" points="107.22 257.07 101.52 259.85 101.52 253.97 107.22 251.95 107.22 257.07"/></g><g id="Step-11" data-name="Step"><rect class="cls-31" x="12.2" y="368.2" width="89.32" height="5.88"/><polygon class="cls-32" points="101.52 368.2 12.2 368.2 19.62 366.17 107.22 366.17 101.52 368.2"/><polygon class="cls-33" points="107.22 371.3 101.52 374.07 101.52 368.2 107.22 366.17 107.22 371.3"/></g><g id="Step-12" data-name="Step"><rect class="cls-34" x="12.2" y="396.75" width="89.32" height="5.88"/><polygon class="cls-35" points="101.52 396.75 12.2 396.75 19.62 394.73 107.22 394.73 101.52 396.75"/><polygon class="cls-36" points="107.22 399.86 101.52 402.63 101.52 396.75 107.22 394.73 107.22 399.86"/></g><g id="Step-13" data-name="Step"><rect class="cls-37" x="12.2" y="311.08" width="89.32" height="5.88"/><polygon class="cls-38" points="101.52 311.08 12.2 311.08 19.62 309.06 107.22 309.06 101.52 311.08"/><polygon class="cls-39" points="107.22 314.19 101.52 316.96 101.52 311.08 107.22 309.06 107.22 314.19"/></g><g id="Step-14" data-name="Step"><rect class="cls-40" x="12.2" y="339.64" width="89.32" height="5.88"/><polygon class="cls-41" points="101.52 339.64 12.2 339.64 19.62 337.62 107.22 337.62 101.52 339.64"/><polygon class="cls-42" points="107.22 342.74 101.52 345.52 101.52 339.64 107.22 337.62 107.22 342.74"/></g><g id="Step-15" data-name="Step"><rect class="cls-43" x="12.2" y="453.87" width="89.32" height="5.88"/><polygon class="cls-44" points="101.52 453.87 12.2 453.87 19.62 451.84 107.22 451.84 101.52 453.87"/><polygon class="cls-45" points="107.22 456.97 101.52 459.75 101.52 453.87 107.22 451.84 107.22 456.97"/></g><g id="Step-16" data-name="Step"><rect class="cls-46" x="12.2" y="425.31" width="89.32" height="5.88"/><polygon class="cls-47" points="101.52 425.31 12.2 425.31 19.62 423.29 107.22 423.29 101.52 425.31"/><polygon class="cls-48" points="107.22 428.41 101.52 431.19 101.52 425.31 107.22 423.29 107.22 428.41"/></g><g id="Step-17" data-name="Step"><rect class="cls-49" x="12.2" y="539.54" width="89.32" height="5.88"/><polygon class="cls-50" points="101.52 539.54 12.2 539.54 19.62 537.51 107.22 537.51 101.52 539.54"/><polygon class="cls-51" points="107.22 542.64 101.52 545.41 101.52 539.54 107.22 537.51 107.22 542.64"/></g><g id="Step-18" data-name="Step"><rect class="cls-52" x="12.2" y="568.09" width="89.32" height="5.88"/><polygon class="cls-53" points="101.52 568.09 12.2 568.09 19.62 566.07 107.22 566.07 101.52 568.09"/><polygon class="cls-54" points="107.22 571.2 101.52 573.97 101.52 568.09 107.22 566.07 107.22 571.2"/></g><g id="Step-19" data-name="Step"><rect class="cls-55" x="12.2" y="482.42" width="89.32" height="5.88"/><polygon class="cls-56" points="101.52 482.42 12.2 482.42 19.62 480.4 107.22 480.4 101.52 482.42"/><polygon class="cls-57" points="107.22 485.53 101.52 488.3 101.52 482.42 107.22 480.4 107.22 485.53"/></g><g id="Step-20" data-name="Step"><rect class="cls-58" x="12.2" y="510.98" width="89.32" height="5.88"/><polygon class="cls-59" points="101.52 510.98 12.2 510.98 19.62 508.96 107.22 508.96 101.52 510.98"/><polygon class="cls-60" points="107.22 514.08 101.52 516.86 101.52 510.98 107.22 508.96 107.22 514.08"/></g><path id="Railing_right" data-name="Railing right" class="cls-61" d="M105.41,595.89q-.52-294.27-1-588.55"/><path id="Railing_left" data-name="Railing left" class="cls-62" d="M13.85,7.34c-.8,7.53-.36,254.05,1,588.55"/><rect id="Background_for_padding_" data-name="Background (for padding)" class="cls-63" width="120" height="600"/></g></g></svg>