<svg xmlns="http://www.w3.org/2000/svg" xmlns:xlink="http://www.w3.org/1999/xlink" viewBox="0 0 120 603.5"><defs><style>.cls-1,.cls-62,.cls-63{fill:none;}.cls-1,.cls-62{stroke-linecap:round;stroke-linejoin:round;stroke-width:7px;}.cls-1{stroke:url(#Steel);}.cls-2{fill:url(#Steel-2);}.cls-3{fill:url(#Steel_3);}.cls-4{fill:url(#Steel_2);}.cls-5{fill:url(#Steel-3);}.cls-6{fill:url(#Steel_3-2);}.cls-7{fill:url(#Steel_2-2);}.cls-8{fill:url(#Steel-4);}.cls-9{fill:url(#Steel_3-3);}.cls-10{fill:url(#Steel_2-3);}.cls-11{fill:url(#Steel-5);}.cls-12{fill:url(#Steel_3-4);}.cls-13{fill:url(#Steel_2-4);}.cls-14{fill:url(#Steel-6);}.cls-15{fill:url(#Steel_3-5);}.cls-16{fill:url(#Steel_2-5);}.cls-17{fill:url(#Steel-7);}.cls-18{fill:url(#Steel_3-6);}.cls-19{fill:url(#Steel_2-6);}.cls-20{fill:url(#Steel-8);}.cls-21{fill:url(#Steel_3-7);}.cls-22{fill:url(#Steel_2-7);}.cls-23{fill:url(#Steel-9);}.cls-24{fill:url(#Steel_3-8);}.cls-25{fill:url(#Steel_2-8);}.cls-26{fill:url(#Steel-10);}.cls-27{fill:url(#Steel_3-9);}.cls-28{fill:url(#Steel_2-9);}.cls-29{fill:url(#Steel-11);}.cls-30{fill:url(#Steel_3-10);}.cls-31{fill:url(#Steel_2-10);}.cls-32{fill:url(#Steel-12);}.cls-33{fill:url(#Steel_3-11);}.cls-34{fill:url(#Steel_2-11);}.cls-35{fill:url(#Steel-13);}.cls-36{fill:url(#Steel_3-12);}.cls-37{fill:url(#Steel_2-12);}.cls-38{fill:url(#Steel-14);}.cls-39{fill:url(#Steel_3-13);}.cls-40{fill:url(#Steel_2-13);}.cls-41{fill:url(#Steel-15);}.cls-42{fill:url(#Steel_3-14);}.cls-43{fill:url(#Steel_2-14);}.cls-44{fill:url(#Steel-16);}.cls-45{fill:url(#Steel_3-15);}.cls-46{fill:url(#Steel_2-15);}.cls-47{fill:url(#Steel-17);}.cls-48{fill:url(#Steel_3-16);}.cls-49{fill:url(#Steel_2-16);}.cls-50{fill:url(#Steel-18);}.cls-51{fill:url(#Steel_3-17);}.cls-52{fill:url(#Steel_2-17);}.cls-53{fill:url(#Steel-19);}.cls-54{fill:url(#Steel_3-18);}.cls-55{fill:url(#Steel_2-18);}.cls-56{fill:url(#Steel-20);}.cls-57{fill:url(#Steel_3-19);}.cls-58{fill:url(#Steel_2-19);}.cls-59{fill:url(#Steel-21);}.cls-60{fill:url(#Steel_3-20);}.cls-61{fill:url(#Steel_2-20);}.cls-62{stroke:url(#Steel-22);}</style><linearGradient id="Steel" x1="6.51" y1="302.89" x2="48.88" y2="302.89" gradientUnits="userSpaceOnUse"><stop offset="0" stop-color="#e5e2df"/><stop offset="0" stop-color="#ded9d6"/><stop offset="0.04" stop-color="#cfccc9"/><stop offset="0.11" stop-color="#a8a8a8"/><stop offset="0.21" stop-color="#6a7072"/><stop offset="0.26" stop-color="#465053"/><stop offset="0.37" stop-color="#878d8f"/><stop offset="0.46" stop-color="#b7babb"/><stop offset="0.53" stop-color="#d5d6d6"/><stop offset="0.57" stop-color="#e0e0e0"/><stop offset="0.63" stop-color="#d6d7d8"/><stop offset="0.73" stop-color="#bcbfc2"/><stop offset="0.86" stop-color="#92989e"/><stop offset="0.88" stop-color="#8b9298"/><stop offset="1" stop-color="#d1d3d4"/><stop offset="1" stop-color="#a7a9ac"/></linearGradient><linearGradient id="Steel-2" x1="8.86" y1="46.73" x2="71.5" y2="46.73" xlink:href="#Steel"/><linearGradient id="Steel_3" x1="8.86" y1="42.88" x2="75.49" y2="42.88" gradientUnits="userSpaceOnUse"><stop offset="0" stop-color="#bfbdba"/><stop offset="0" stop-color="#c2bdbb"/><stop offset="0.04" stop-color="#b3afae"/><stop offset="0.12" stop-color="#8c8c8c"/><stop offset="0.22" stop-color="#4e5354"/><stop offset="0.26" stop-color="#31393b"/><stop offset="0.37" stop-color="#6e7374"/><stop offset="0.46" stop-color="#9ea0a1"/><stop offset="0.53" stop-color="#bcbdbd"/><stop offset="0.57" stop-color="#c7c7c7"/><stop offset="0.63" stop-color="#bdbebe"/><stop offset="0.73" stop-color="#a3a5a7"/><stop offset="0.85" stop-color="#797d81"/><stop offset="0.88" stop-color="#6e7378"/><stop offset="1" stop-color="#b0b2b3"/><stop offset="1" stop-color="#909194"/></linearGradient><linearGradient id="Steel_2" x1="71.5" y1="45.74" x2="75.49" y2="45.74" gradientUnits="userSpaceOnUse"><stop offset="0" stop-color="#a3a19f"/><stop offset="0" stop-color="#9c9896"/><stop offset="0.06" stop-color="#8d8b8a"/><stop offset="0.16" stop-color="#666a6a"/><stop offset="0.26" stop-color="#3c4547"/><stop offset="0.34" stop-color="#606667"/><stop offset="0.44" stop-color="#8f9293"/><stop offset="0.53" stop-color="#adaeae"/><stop offset="0.57" stop-color="#b8b8b8"/><stop offset="0.65" stop-color="#aeafb0"/><stop offset="0.77" stop-color="#94989b"/><stop offset="0.88" stop-color="#797f85"/><stop offset="1" stop-color="#9c9d9e"/><stop offset="1" stop-color="#888a8c"/></linearGradient><linearGradient id="Steel-3" x1="8.86" y1="74.58" x2="71.5" y2="74.58" xlink:href="#Steel"/><linearGradient id="Steel_3-2" x1="8.86" y1="70.72" x2="75.49" y2="70.72" xlink:href="#Steel_3"/><linearGradient id="Steel_2-2" x1="71.5" y1="73.59" x2="75.49" y2="73.59" xlink:href="#Steel_2"/><linearGradient id="Steel-4" x1="8.86" y1="102.42" x2="71.5" y2="102.42" xlink:href="#Steel"/><linearGradient id="Steel_3-3" x1="8.86" y1="98.57" x2="75.49" y2="98.57" xlink:href="#Steel_3"/><linearGradient id="Steel_2-3" x1="71.5" y1="101.43" x2="75.49" y2="101.43" xlink:href="#Steel_2"/><linearGradient id="Steel-5" x1="8.86" y1="130.26" x2="71.5" y2="130.26" xlink:href="#Steel"/><linearGradient id="Steel_3-4" x1="8.86" y1="126.41" x2="75.49" y2="126.41" xlink:href="#Steel_3"/><linearGradient id="Steel_2-4" x1="71.5" y1="129.28" x2="75.49" y2="129.28" xlink:href="#Steel_2"/><linearGradient id="Steel-6" x1="8.86" y1="213.79" x2="71.5" y2="213.79" xlink:href="#Steel"/><linearGradient id="Steel_3-5" x1="8.86" y1="209.94" x2="75.49" y2="209.94" xlink:href="#Steel_3"/><linearGradient id="Steel_2-5" x1="71.5" y1="212.81" x2="75.49" y2="212.81" xlink:href="#Steel_2"/><linearGradient id="Steel-7" x1="8.86" y1="241.64" x2="71.5" y2="241.64" xlink:href="#Steel"/><linearGradient id="Steel_3-6" x1="8.86" y1="237.78" x2="75.49" y2="237.78" xlink:href="#Steel_3"/><linearGradient id="Steel_2-6" x1="71.5" y1="240.65" x2="75.49" y2="240.65" xlink:href="#Steel_2"/><linearGradient id="Steel-8" x1="8.86" y1="158.11" x2="71.5" y2="158.11" xlink:href="#Steel"/><linearGradient id="Steel_3-7" x1="8.86" y1="154.25" x2="75.49" y2="154.25" xlink:href="#Steel_3"/><linearGradient id="Steel_2-7" x1="71.5" y1="157.12" x2="75.49" y2="157.12" xlink:href="#Steel_2"/><linearGradient id="Steel-9" x1="8.86" y1="185.95" x2="71.5" y2="185.95" xlink:href="#Steel"/><linearGradient id="Steel_3-8" x1="8.86" y1="182.1" x2="75.49" y2="182.1" xlink:href="#Steel_3"/><linearGradient id="Steel_2-8" x1="71.5" y1="184.96" x2="75.49" y2="184.96" xlink:href="#Steel_2"/><linearGradient id="Steel-10" x1="8.86" y1="297.32" x2="71.5" y2="297.32" xlink:href="#Steel"/><linearGradient id="Steel_3-9" x1="8.86" y1="293.47" x2="75.49" y2="293.47" xlink:href="#Steel_3"/><linearGradient id="Steel_2-9" x1="71.5" y1="296.34" x2="75.49" y2="296.34" xlink:href="#Steel_2"/><linearGradient id="Steel-11" x1="8.86" y1="269.48" x2="71.5" y2="269.48" xlink:href="#Steel"/><linearGradient id="Steel_3-10" x1="8.86" y1="265.63" x2="75.49" y2="265.63" xlink:href="#Steel_3"/><linearGradient id="Steel_2-10" x1="71.5" y1="268.49" x2="75.49" y2="268.49" xlink:href="#Steel_2"/><linearGradient id="Steel-12" x1="8.86" y1="380.85" x2="71.5" y2="380.85" xlink:href="#Steel"/><linearGradient id="Steel_3-11" x1="8.86" y1="377" x2="75.49" y2="377" xlink:href="#Steel_3"/><linearGradient id="Steel_2-11" x1="71.5" y1="379.87" x2="75.49" y2="379.87" xlink:href="#Steel_2"/><linearGradient id="Steel-13" x1="8.86" y1="408.7" x2="71.5" y2="408.7" xlink:href="#Steel"/><linearGradient id="Steel_3-12" x1="8.86" y1="404.85" x2="75.49" y2="404.85" xlink:href="#Steel_3"/><linearGradient id="Steel_2-12" x1="71.5" y1="407.71" x2="75.49" y2="407.71" xlink:href="#Steel_2"/><linearGradient id="Steel-14" x1="8.86" y1="325.17" x2="71.5" y2="325.17" xlink:href="#Steel"/><linearGradient id="Steel_3-13" x1="8.86" y1="321.31" x2="75.49" y2="321.31" xlink:href="#Steel_3"/><linearGradient id="Steel_2-13" x1="71.5" y1="324.18" x2="75.49" y2="324.18" xlink:href="#Steel_2"/><linearGradient id="Steel-15" x1="8.86" y1="353.01" x2="71.5" y2="353.01" xlink:href="#Steel"/><linearGradient id="Steel_3-14" x1="8.86" y1="349.16" x2="75.49" y2="349.16" xlink:href="#Steel_3"/><linearGradient id="Steel_2-14" x1="71.5" y1="352.02" x2="75.49" y2="352.02" xlink:href="#Steel_2"/><linearGradient id="Steel-16" x1="8.86" y1="464.39" x2="71.5" y2="464.39" xlink:href="#Steel"/><linearGradient id="Steel_3-15" x1="8.86" y1="460.53" x2="75.49" y2="460.53" xlink:href="#Steel_3"/><linearGradient id="Steel_2-15" x1="71.5" y1="463.4" x2="75.49" y2="463.4" xlink:href="#Steel_2"/><linearGradient id="Steel-17" x1="8.86" y1="436.54" x2="71.5" y2="436.54" xlink:href="#Steel"/><linearGradient id="Steel_3-16" x1="8.86" y1="432.69" x2="75.49" y2="432.69" xlink:href="#Steel_3"/><linearGradient id="Steel_2-16" x1="71.5" y1="435.55" x2="75.49" y2="435.55" xlink:href="#Steel_2"/><linearGradient id="Steel-18" x1="8.86" y1="547.92" x2="71.5" y2="547.92" xlink:href="#Steel"/><linearGradient id="Steel_3-17" x1="8.86" y1="544.06" x2="75.49" y2="544.06" xlink:href="#Steel_3"/><linearGradient id="Steel_2-17" x1="71.5" y1="546.93" x2="75.49" y2="546.93" xlink:href="#Steel_2"/><linearGradient id="Steel-19" x1="8.86" y1="575.76" x2="71.5" y2="575.76" xlink:href="#Steel"/><linearGradient id="Steel_3-18" x1="8.86" y1="571.91" x2="75.49" y2="571.91" xlink:href="#Steel_3"/><linearGradient id="Steel_2-18" x1="71.5" y1="574.77" x2="75.49" y2="574.77" xlink:href="#Steel_2"/><linearGradient id="Steel-20" x1="8.86" y1="492.23" x2="71.5" y2="492.23" xlink:href="#Steel"/><linearGradient id="Steel_3-19" x1="8.86" y1="488.38" x2="75.49" y2="488.38" xlink:href="#Steel_3"/><linearGradient id="Steel_2-19" x1="71.5" y1="491.24" x2="75.49" y2="491.24" xlink:href="#Steel_2"/><linearGradient id="Steel-21" x1="8.86" y1="520.07" x2="71.5" y2="520.07" xlink:href="#Steel"/><linearGradient id="Steel_3-20" x1="8.86" y1="516.22" x2="75.49" y2="516.22" xlink:href="#Steel_3"/><linearGradient id="Steel_2-20" x1="71.5" y1="519.09" x2="75.49" y2="519.09" xlink:href="#Steel_2"/><linearGradient id="Steel-22" x1="69.99" y1="302.89" x2="112.36" y2="302.89" xlink:href="#Steel"/></defs><g id="Layer_2" data-name="Layer 2"><g id="Ladder_4" data-name="Ladder 4"><path id="Railing_left" data-name="Railing left" class="cls-1" d="M10.73,600C10.36,275.29,10.19,38.79,10,26.14a19.26,19.26,0,0,1,5.32-14C16.43,11,22.07,5.27,30,5.81c8.9.61,13.26,8.74,13.59,9.39,1.79,3.51,1.82,7.58,1.83,9.78,0,2.56,0,4.69-.14,6.2"/><g id="Step"><rect class="cls-2" x="8.86" y="43.87" width="62.63" height="5.73"/><polygon class="cls-3" points="71.5 43.87 8.86 43.87 14.06 41.89 75.49 41.89 71.5 43.87"/><polygon class="cls-4" points="75.49 46.89 71.5 49.6 71.5 43.87 75.49 41.89 75.49 46.89"/></g><g id="Step-2" data-name="Step"><rect class="cls-5" x="8.86" y="71.71" width="62.63" height="5.73"/><polygon class="cls-6" points="71.5 71.71 8.86 71.71 14.06 69.74 75.49 69.74 71.5 71.71"/><polygon class="cls-7" points="75.49 74.73 71.5 77.44 71.5 71.71 75.49 69.74 75.49 74.73"/></g><g id="Step-3" data-name="Step"><rect class="cls-8" x="8.86" y="99.55" width="62.63" height="5.73"/><polygon class="cls-9" points="71.5 99.55 8.86 99.55 14.06 97.58 75.49 97.58 71.5 99.55"/><polygon class="cls-10" points="75.49 102.58 71.5 105.28 71.5 99.55 75.49 97.58 75.49 102.58"/></g><g id="Step-4" data-name="Step"><rect class="cls-11" x="8.86" y="127.4" width="62.63" height="5.73"/><polygon class="cls-12" points="71.5 127.4 8.86 127.4 14.06 125.42 75.49 125.42 71.5 127.4"/><polygon class="cls-13" points="75.49 130.42 71.5 133.13 71.5 127.4 75.49 125.42 75.49 130.42"/></g><g id="Step-5" data-name="Step"><rect class="cls-14" x="8.86" y="210.93" width="62.63" height="5.73"/><polygon class="cls-15" points="71.5 210.93 8.86 210.93 14.06 208.95 75.49 208.95 71.5 210.93"/><polygon class="cls-16" points="75.49 213.95 71.5 216.66 71.5 210.93 75.49 208.95 75.49 213.95"/></g><g id="Step-6" data-name="Step"><rect class="cls-17" x="8.86" y="238.77" width="62.63" height="5.73"/><polygon class="cls-18" points="71.5 238.77 8.86 238.77 14.06 236.8 75.49 236.8 71.5 238.77"/><polygon class="cls-19" points="75.49 241.8 71.5 244.5 71.5 238.77 75.49 236.8 75.49 241.8"/></g><g id="Step-7" data-name="Step"><rect class="cls-20" x="8.86" y="155.24" width="62.63" height="5.73"/><polygon class="cls-21" points="71.5 155.24 8.86 155.24 14.06 153.27 75.49 153.27 71.5 155.24"/><polygon class="cls-22" points="75.49 158.27 71.5 160.97 71.5 155.24 75.49 153.27 75.49 158.27"/></g><g id="Step-8" data-name="Step"><rect class="cls-23" x="8.86" y="183.08" width="62.63" height="5.73"/><polygon class="cls-24" points="71.5 183.08 8.86 183.08 14.06 181.11 75.49 181.11 71.5 183.08"/><polygon class="cls-25" points="75.49 186.11 71.5 188.82 71.5 183.08 75.49 181.11 75.49 186.11"/></g><g id="Step-9" data-name="Step"><rect class="cls-26" x="8.86" y="294.46" width="62.63" height="5.73"/><polygon class="cls-27" points="71.5 294.46 8.86 294.46 14.06 292.48 75.49 292.48 71.5 294.46"/><polygon class="cls-28" points="75.49 297.48 71.5 300.19 71.5 294.46 75.49 292.48 75.49 297.48"/></g><g id="Step-10" data-name="Step"><rect class="cls-29" x="8.86" y="266.61" width="62.63" height="5.73"/><polygon class="cls-30" points="71.5 266.62 8.86 266.62 14.06 264.64 75.49 264.64 71.5 266.62"/><polygon class="cls-31" points="75.49 269.64 71.5 272.35 71.5 266.62 75.49 264.64 75.49 269.64"/></g><g id="Step-11" data-name="Step"><rect class="cls-32" x="8.86" y="377.99" width="62.63" height="5.73"/><polygon class="cls-33" points="71.5 377.99 8.86 377.99 14.06 376.01 75.49 376.01 71.5 377.99"/><polygon class="cls-34" points="75.49 381.01 71.5 383.72 71.5 377.99 75.49 376.01 75.49 381.01"/></g><g id="Step-12" data-name="Step"><rect class="cls-35" x="8.86" y="405.83" width="62.63" height="5.73"/><polygon class="cls-36" points="71.5 405.83 8.86 405.83 14.06 403.86 75.49 403.86 71.5 405.83"/><polygon class="cls-37" points="75.49 408.86 71.5 411.56 71.5 405.83 75.49 403.86 75.49 408.86"/></g><g id="Step-13" data-name="Step"><rect class="cls-38" x="8.86" y="322.3" width="62.63" height="5.73"/><polygon class="cls-39" points="71.5 322.3 8.86 322.3 14.06 320.33 75.49 320.33 71.5 322.3"/><polygon class="cls-40" points="75.49 325.33 71.5 328.03 71.5 322.3 75.49 320.33 75.49 325.33"/></g><g id="Step-14" data-name="Step"><rect class="cls-41" x="8.86" y="350.15" width="62.63" height="5.73"/><polygon class="cls-42" points="71.5 350.15 8.86 350.15 14.06 348.17 75.49 348.17 71.5 350.15"/><polygon class="cls-43" points="75.49 353.17 71.5 355.88 71.5 350.15 75.49 348.17 75.49 353.17"/></g><g id="Step-15" data-name="Step"><rect class="cls-44" x="8.86" y="461.52" width="62.63" height="5.73"/><polygon class="cls-45" points="71.5 461.52 8.86 461.52 14.06 459.55 75.49 459.55 71.5 461.52"/><polygon class="cls-46" points="75.49 464.55 71.5 467.25 71.5 461.52 75.49 459.55 75.49 464.55"/></g><g id="Step-16" data-name="Step"><rect class="cls-47" x="8.86" y="433.68" width="62.63" height="5.73"/><polygon class="cls-48" points="71.5 433.68 8.86 433.68 14.06 431.7 75.49 431.7 71.5 433.68"/><polygon class="cls-49" points="75.49 436.7 71.5 439.41 71.5 433.68 75.49 431.7 75.49 436.7"/></g><g id="Step-17" data-name="Step"><rect class="cls-50" x="8.86" y="545.05" width="62.63" height="5.73"/><polygon class="cls-51" points="71.5 545.05 8.86 545.05 14.06 543.08 75.49 543.08 71.5 545.05"/><polygon class="cls-52" points="75.49 548.08 71.5 550.78 71.5 545.05 75.49 543.08 75.49 548.08"/></g><g id="Step-18" data-name="Step"><rect class="cls-53" x="8.86" y="572.89" width="62.63" height="5.73"/><polygon class="cls-54" points="71.5 572.89 8.86 572.89 14.06 570.92 75.49 570.92 71.5 572.89"/><polygon class="cls-55" points="75.49 575.92 71.5 578.63 71.5 572.89 75.49 570.92 75.49 575.92"/></g><g id="Step-19" data-name="Step"><rect class="cls-56" x="8.86" y="489.36" width="62.63" height="5.73"/><polygon class="cls-57" points="71.5 489.36 8.86 489.36 14.06 487.39 75.49 487.39 71.5 489.36"/><polygon class="cls-58" points="75.49 492.39 71.5 495.1 71.5 489.36 75.49 487.39 75.49 492.39"/></g><g id="Step-20" data-name="Step"><rect class="cls-59" x="8.86" y="517.21" width="62.63" height="5.73"/><polygon class="cls-60" points="71.5 517.21 8.86 517.21 14.06 515.23 75.49 515.23 71.5 517.21"/><polygon class="cls-61" points="75.49 520.23 71.5 522.94 71.5 517.21 75.49 515.23 75.49 520.23"/></g><path id="Railing_right" data-name="Railing right" class="cls-62" d="M74.22,600c-.38-324.71-.54-561.21-.72-573.86a19.24,19.24,0,0,1,5.31-14c1.1-1.12,6.74-6.88,14.63-6.34,8.9.61,13.25,8.74,13.58,9.39,1.8,3.51,1.82,7.58,1.84,9.78,0,2.56,0,4.69-.14,6.2"/><rect id="Background_for_padding_" data-name="Background (for padding)" class="cls-63" width="120" height="594.23"/></g></g></svg>