<svg xmlns="http://www.w3.org/2000/svg" viewBox="0 0 216.98 209"><defs><style>.cls-1{fill:#ffc62a;}.cls-1,.cls-2{stroke:#000;stroke-miterlimit:10;stroke-width:0.5px;}.cls-2{fill:#000c94;}</style></defs><g id="Layer_2" data-name="Layer 2"><g id="Logo_1_krāsains" data-name="Logo 1 krāsains"><path id="Iniciālis_C_" data-name="Iniciālis &quot;C&quot;" class="cls-1" d="M68.83,178.45c10.5,5.1,26.7,8.4,42.6,8.4,49.2,0,77.7-31.8,77.7-81.3,0-53.1-31.5-83.4-78.9-83.4-16.8,0-30.9,3.6-40.8,8.4l-6.3-21.3c6.9-3.6,22.8-9,48-9,62.7,0,105.6,42.9,105.6,106.2,0,60.83-36.11,96.16-86.09,101.57a127.48,127.48,0,0,1-13.81.73c-24.6,0-43.8-4.8-53.4-9.6Z"/><path id="Iniciālis_M_" data-name="Iniciālis &quot;M&quot;" class="cls-2" d="M127.87,117.48c-.27-8-.73-23.69-1.19-44.78-.33-15.15-.53-29.92-.45-42.52h-.49L93.64,165h-14q-17-65.51-34-131c-8.07,8.39-26.93,30.42-30,63-1,10.16-2.67,28.22,8,47s27.49,27.18,34,30q-4,9.49-8,19a96.8,96.8,0,0,1-23-18,98.59,98.59,0,0,1-21-35,106.64,106.64,0,0,1-5-43c1-12.12,4.86-33.5,19-53a118.66,118.66,0,0,1,20-21,120.13,120.13,0,0,1,14-10q17,66,34,132,16-72.26,32.06-144.5c2.84.18,5.87.47,9.06.92,3.55.49,6.86,1.11,9.9,1.79q3,101.21,6,202.41c-2.77.65-5.11,1.09-6.93,1.4-1.62.28-3,.48-4,.62-1.15.15-2.17.27-3,.36C130,183.73,129.44,164.19,127.87,117.48Z"/></g></g></svg>